<svg id="Layer_1" enable-background="new 0 0 512 512" height="512" viewBox="0 0 512 512" width="512" xmlns="http://www.w3.org/2000/svg"><g><g><path d="m471.048 346.558c16.324-32.945 24.952-69.791 24.952-106.558 0-64.106-24.964-124.376-70.294-169.706s-105.6-70.294-169.706-70.294-124.375 24.964-169.706 70.294-70.294 105.6-70.294 169.706c0 36.765 8.628 73.61 24.951 106.554 14.837 29.944 36.106 56.763 61.821 78.127-8.263 7.365-14.066 17.425-16.029 28.787-12.025 3.911-20.743 15.22-20.743 28.532 0 16.542 13.458 30 30 30h320c16.542 0 30-13.458 30-30 0-13.312-8.718-24.621-20.743-28.532-1.962-11.362-7.765-21.421-16.028-28.787 25.713-21.363 46.982-48.181 61.819-78.123zm-435.048-106.558c0-121.309 98.691-220 220-220s220 98.691 220 220c0 44.608-13.854 88.007-38.608 124.268-12.349-16.145-31.381-20.716-48.635-17.76-3.872-8.086-10.435-15.857-18.192-21.917 1.582-1.328 2.947-2.923 4.012-4.763 2.41-4.161 3.055-9.012 1.817-13.658s-4.211-8.532-8.384-10.949c-12.84-7.413-24.44-16.619-35.171-26.276 4.108-.818 8.221-1.78 12.368-2.892.328-.088.65-.192.964-.312 4.225-1.385 7.741-4.239 9.975-8.125 4.941-8.598 1.966-19.613-6.616-24.547-13.427-7.752-25.395-16.896-35.314-26.924 8.386-1.66 17.501-4.532 26.269-9.595.218-.126.429-.259.634-.397 3.108-1.969 5.497-4.791 6.935-8.203 3.85-9.141-.454-19.71-9.602-23.566-31.11-13.077-47.039-37.764-56.557-52.516-6.326-9.805-13.066-18.605-25.891-18.605s-19.565 8.801-25.891 18.605c-9.456 14.655-25.271 39.165-56.048 52.298-3.824 1.473-7.051 4.224-9.109 7.777-2.41 4.161-3.055 9.012-1.817 13.658s4.211 8.532 8.384 10.949c8.768 5.063 17.882 7.935 26.268 9.595-9.731 9.837-21.44 18.829-34.559 26.487-4.527 2.323-7.857 6.444-9.174 11.372-2.564 9.594 3.155 19.484 12.744 22.048 4.146 1.111 8.259 2.073 12.368 2.892-10.611 9.55-22.074 18.659-34.748 26.03-4.334 2.353-7.539 6.413-8.813 11.182-1.859 6.959.654 14.061 5.829 18.423-7.762 6.06-14.328 13.834-18.199 21.931-17.241-2.954-36.279 1.618-48.63 17.761-24.755-36.263-38.609-79.663-38.609-124.271zm210 172v-69.977c3.334.078 6.669.13 10.005.13 3.333 0 6.665-.052 9.996-.13v69.977zm-87.879-101.916c19.152-11.761 35.336-26.612 50.02-41.005 2.795-2.74 3.735-6.858 2.405-10.539s-4.685-6.248-8.585-6.568c-8.554-.704-16.879-2.035-25.316-4.055 19.878-12.115 36.782-27.113 49.059-43.559 2.213-2.965 2.609-6.91 1.028-10.255-1.581-3.346-4.879-5.544-8.575-5.717-13.745-.641-24.141-2.903-33.041-7.246 34.312-15.819 52.104-43.395 61.804-58.431 6.096-9.448 7.684-9.448 9.085-9.448s2.989 0 9.086 9.45c9.712 15.053 27.497 42.615 61.8 58.43-8.906 4.345-19.299 6.604-33.038 7.245-3.696.173-6.995 2.371-8.575 5.717-1.581 3.345-1.186 7.29 1.028 10.255 12.283 16.453 29.174 31.439 49.06 43.559-8.435 2.019-16.762 3.351-25.316 4.055-3.9.32-7.255 2.887-8.585 6.568s-.39 7.799 2.405 10.539c14.69 14.399 30.878 29.252 50.019 41.005-63.316 16.105-132.454 16.105-195.768 0zm-70.677 71.154c8.793-16.731 25.495-18.076 38.971-13.311 2.795.988 5.886.686 8.437-.827 2.55-1.514 4.298-4.08 4.77-7.008 1.723-10.683 16.588-24.54 28.648-27.103 18.925 4.039 38.258 6.732 57.731 8.1v70.911h-90c-5.015 0-9.857.75-14.428 2.131-12.624-9.747-24.042-20.802-34.129-32.893zm328.556 110.762h-320c-5.514 0-10-4.486-10-10s4.486-10 10-10h114.997c5.523 0 10-4.478 10-10s-4.477-10-10-10h-103.277c4.128-11.639 15.243-20 28.279-20h240.001c13.036 0 24.151 8.361 28.279 20h-103.282c-5.523 0-10 4.478-10 10s4.477 10 10 10h115.003c5.514 0 10 4.486 10 10s-4.486 10-10 10zm-25.573-77.869c-4.57-1.381-9.412-2.131-14.427-2.131h-90v-70.912c19.473-1.368 38.809-4.061 57.733-8.099 12.053 2.567 26.926 16.438 28.646 27.102.472 2.927 2.22 5.494 4.77 7.008 2.551 1.513 5.641 1.815 8.437.827 13.487-4.77 30.182-3.421 38.972 13.31-10.088 12.093-21.508 23.147-34.131 32.895z"/><path d="m148.747 125.749c5.523 0 10-4.478 10-10s-4.477-10-10-10h-.007c-5.523 0-9.997 4.478-9.997 10s4.481 10 10.004 10z"/><path d="m94.747 243.749c5.523 0 10-4.478 10-10s-4.477-10-10-10h-.007c-5.523 0-9.997 4.478-9.997 10s4.481 10 10.004 10z"/><path d="m416.747 279.749c5.523 0 10-4.478 10-10s-4.477-10-10-10h-.007c-5.523 0-9.997 4.478-9.997 10s4.481 10 10.004 10z"/><path d="m376.747 135.749c5.523 0 10-4.478 10-10s-4.477-10-10-10h-.007c-5.523 0-9.997 4.478-9.997 10s4.481 10 10.004 10z"/><path d="m282.747 65.749c5.523 0 10-4.478 10-10s-4.477-10-10-10h-.007c-5.523 0-9.997 4.478-9.997 10s4.481 10 10.004 10z"/><path d="m256 452h-.007c-5.523 0-9.996 4.478-9.996 10s4.48 10 10.003 10 10-4.478 10-10-4.477-10-10-10z"/></g></g></svg>